:SAMPLES-PER-SECOND 30
:FULLY-SPECIFIED
:DEGREES
615
root  -32.3983 31.7417 -3.46027 139.792 -3.9147 100.598
Spine  7.10336 2.77692 -14.6064
Spine1  6.84827 -9.88321 -0.130832
Neck  3.97569e-016 0 -2.38542e-015
Head  -7.98692 -3.81145 34.5348
R_Clavicle  0.366205 -18.5068 0.514162
R_UpperArm  10.7526 8.67768 12.7809
R_Forearm  11.2392 -36.969 19.3359
R_Hand  -1.55321 9.45405 -22.9909
L_Clavicle  -0.645826 22.3392 -0.0842113
L_UpperArm  -21.3799 2.08211 20.7377
L_Forearm  10.6143 44.6183 47.8734
L_Hand  -0.0747026 1.43088 -1.13547
L_Thigh  -19.9945 -12.935 -2.9832
L_Calf  -7.60006 -2.54234 19.2422
L_Foot  6.699 12.601 11.3321
L_Toe0  0.505156 0.0248077 -6.13618
R_Thigh  19.8021 1.19533 -15.6235
R_Calf  -15.6453 0.936868 2.87199
R_Foot  3.19525 10.8272 -1.43016
R_Toe0  -17.3581 4.27864 -2.93897
616
root  -32.2475 31.7883 -2.90317 137.614 -3.37772 101.011
Spine  5.91722 0.965511 -15.1969
Spine1  5.45143 -8.21342 1.27951
Neck  3.97569e-016 0 -2.38542e-015
Head  -15.593 -3.16766 34.4612
R_Clavicle  0.36798 -18.2822 0.658129
R_UpperArm  7.02598 8.68167 13.4485
R_Forearm  15.0725 -33.8666 19.3128
R_Hand  -1.6242 9.41682 -23.4964
L_Clavicle  -0.66288 22.5036 -0.282294
L_UpperArm  -19.5352 2.52576 20.8369
L_Forearm  10.6007 44.3606 45.7689
L_Hand  -0.0975686 1.81891 -1.38003
L_Thigh  -20.8851 -11.7083 -4.4354
L_Calf  -7.3127 -2.51899 19.1728
L_Foot  6.62995 11.8785 11.8767
L_Toe0  0.505156 0.0253908 -6.13618
R_Thigh  19.9032 -1.55948 -13.1171
R_Calf  -4.52773 -0.520638 -1.6638
R_Foot  3.09409 10.5614 0.218388
R_Toe0  -11.7476 1.59804 -8.41738
617
root  -32.0963 31.843 -2.2944 135.714 -2.53983 101.182
Spine  4.74028 -0.691377 -15.5999
Spine1  4.13972 -5.98501 2.53248
Neck  3.97569e-016 0 -2.38542e-015
Head  -20.4697 -2.76807 33.7874
R_Clavicle  0.369079 -18.1669 0.727229
R_UpperArm  5.07636 8.49141 15.294
R_Forearm  20.3955 -30.3421 19.7278
R_Hand  -1.72918 9.26464 -24.2672
L_Clavicle  -0.697091 22.9985 -0.557693
L_UpperArm  -15.2822 2.56495 20.8318
L_Forearm  9.51123 43.4637 42.9015
L_Hand  -0.116283 1.9799 -1.61891
L_Thigh  -21.7735 -10.2062 -5.99319
L_Calf  -7.3264 -2.52676 19.2983
L_Foot  6.61709 11.4507 12.2975
L_Toe0  0.505156 0.0260017 -6.13617
R_Thigh  18.0799 -4.00685 -10.8489
R_Calf  3.69777 -1.42064 -4.47018
R_Foot  2.31143 7.82092 -0.529807
R_Toe0  -4.22302 -0.0251506 -13.7506
618
root  -31.9712 31.8693 -1.64492 134.606 -1.76059 101.077
Spine  3.45108 -2.93786 -15.9252
Spine1  2.84101 -2.47376 3.47978
Neck  3.97569e-016 0 -2.38542e-015
Head  -22.9891 -2.51246 32.8182
R_Clavicle  0.376106 -18.3769 0.849531
R_UpperArm  5.62495 8.6156 17.9638
R_Forearm  24.2009 -27.6239 20.1958
R_Hand  -1.82975 8.99179 -25.0519
L_Clavicle  -0.73952 23.8642 -0.714804
L_UpperArm  -9.04188 2.33193 20.4444
L_Forearm  6.92238 41.7329 40.1684
L_Hand  -0.11741 1.8549 -1.71191
L_Thigh  -22.372 -8.58091 -7.18922
L_Calf  -7.51752 -2.51035 19.192
L_Foot  6.42518 10.8304 12.3756
L_Toe0  0.505156 0.026641 -6.13617
R_Thigh  15.4515 -6.26265 -8.66673
R_Calf  7.76197 -1.75797 -5.53157
R_Foot  1.29422 4.07445 -1.4835
R_Toe0  2.52209 -0.395245 -15.3628
619
root  -31.857 31.8882 -0.961291 134.207 -1.10309 100.672
Spine  2.04124 -5.29183 -16.1762
Spine1  1.55653 1.64617 4.10654
Neck  3.97569e-016 0 -2.38542e-015
Head  -23.5588 -2.54012 31.7975
R_Clavicle  0.384758 -18.7125 0.989642
R_UpperArm  9.25518 8.85122 20.9969
R_Forearm  25.3016 -26.4731 20.4593
R_Hand  -1.98056 8.81458 -26.2035
L_Clavicle  -0.769852 24.5647 -0.767054
L_UpperArm  -2.65685 2.01952 19.4327
L_Forearm  4.094 39.9184 38.3468
L_Hand  -0.105512 1.81215 -1.53725
L_Thigh  -22.3215 -6.8724 -8.13744
L_Calf  -7.50728 -2.48363 18.9591
L_Foot  6.09012 9.93752 12.3046
L_Toe0  0.505156 0.027309 -6.13616
R_Thigh  12.3674 -8.2804 -6.54573
R_Calf  7.87 -1.46483 -4.6276
R_Foot  0.706198 1.94445 -1.48524
R_Toe0  3.18259 -0.443053 -14.4804
